<?xml version="1.0" standalone="no"?>
<!DOCTYPE svg PUBLIC "-//W3C//DTD SVG 20010904//EN"
 "http://www.w3.org/TR/2001/REC-SVG-20010904/DTD/svg10.dtd">
<svg version="1.0" xmlns="http://www.w3.org/2000/svg"
 width="700.000000pt" height="700.000000pt" viewBox="0 0 700.000000 700.000000"
 preserveAspectRatio="xMidYMid meet">
<metadata>
Created by potrace 1.11, written by Peter Selinger 2001-2013
</metadata>
<g transform="translate(0.000000,700.000000) scale(0.100000,-0.100000)"
fill="#000000" stroke="none">
<path d="M2895 6985 c-179 -34 -336 -117 -462 -246 -80 -81 -123 -142 -165
-232 -104 -223 -104 -224 -264 -238 -140 -13 -239 -40 -349 -93 -263 -129
-441 -363 -485 -639 -16 -95 -8 -276 15 -361 43 -157 116 -279 239 -401 98
-97 176 -148 298 -195 140 -54 207 -60 672 -60 434 0 515 6 626 41 264 83 453
264 564 538 14 36 36 76 49 89 35 39 95 62 164 62 136 0 307 50 438 128 105
62 235 193 297 298 261 443 94 997 -367 1225 -187 92 -191 93 -730 95 -359 2
-487 0 -540 -11z m1035 -299 c210 -68 376 -237 419 -426 16 -67 13 -218 -4
-284 -35 -133 -128 -261 -246 -340 -86 -56 -182 -85 -323 -95 -123 -9 -180
-24 -245 -63 -99 -60 -157 -131 -216 -267 -51 -118 -84 -168 -154 -236 -62
-60 -144 -108 -236 -138 -68 -21 -81 -22 -535 -22 l-465 0 -73 27 c-104 38
-175 83 -243 156 -234 249 -205 645 63 847 107 81 210 119 352 130 44 3 104
11 131 17 120 25 257 132 308 240 14 29 44 94 67 143 79 166 235 287 413 321
54 10 177 12 502 10 382 -2 436 -4 485 -20z"/>
<path d="M5400 5525 c-140 -31 -260 -96 -360 -195 -78 -77 -127 -150 -170
-254 -42 -100 -58 -112 -166 -121 -331 -27 -599 -242 -680 -545 -24 -89 -25
-272 -1 -360 63 -241 243 -433 482 -517 l80 -28 404 -3 c350 -3 415 -1 480 14
239 52 428 214 526 447 41 97 63 113 171 120 109 7 187 27 279 71 184 87 319
241 385 436 16 48 23 99 27 190 5 108 3 136 -16 205 -60 216 -199 386 -395
480 -142 67 -149 68 -586 71 -315 2 -408 0 -460 -11z m801 -285 c170 -32 322
-172 359 -332 41 -178 -40 -368 -200 -470 -60 -38 -124 -56 -249 -67 -191 -18
-285 -87 -377 -279 -81 -168 -156 -240 -295 -283 -55 -17 -96 -19 -414 -19
-325 0 -358 2 -418 20 -316 98 -419 492 -187 718 90 87 161 117 330 138 143
17 216 50 287 127 26 30 53 64 60 78 6 13 30 63 53 111 62 134 165 222 295
254 63 15 678 19 756 4z"/>
<path d="M1122 3640 c-41 -10 -80 -44 -98 -87 -12 -27 -14 -261 -14 -1381 0
-913 -3 -1367 -11 -1408 -18 -103 -82 -219 -164 -300 -107 -106 -262 -173
-398 -174 -81 0 -144 -53 -154 -128 -6 -51 31 -120 77 -144 33 -17 151 -18
3050 -18 2851 0 3017 1 3049 18 96 48 106 181 19 245 -17 13 -59 24 -116 32
-52 7 -114 24 -146 38 -69 32 -154 110 -189 175 -59 108 -57 70 -57 1230 0
1062 0 1064 -21 1102 -11 20 -35 45 -52 56 -31 18 -67 19 -999 22 l-967 2 -3
314 c-3 300 -4 316 -24 342 -11 15 -33 37 -48 48 -27 21 -31 21 -1364 23 -735
0 -1352 -2 -1370 -7z m2508 -1527 c0 -741 4 -1272 10 -1323 19 -166 74 -310
163 -428 26 -35 47 -65 47 -68 0 -2 -623 -4 -1385 -4 l-1385 0 45 59 c57 75
117 193 147 291 l23 75 3 1318 2 1317 1165 0 1165 0 0 -1237z m2050 -495 c0
-946 1 -1007 19 -1073 22 -81 49 -146 85 -204 14 -22 26 -43 26 -46 0 -3 -316
-5 -702 -3 -694 3 -704 4 -768 25 -198 67 -349 230 -395 426 -12 52 -15 206
-15 970 l0 907 875 0 875 0 0 -1002z"/>
</g>
</svg>
